<svg width="428" height="838" viewBox="0 0 428 838" fill="none" xmlns="http://www.w3.org/2000/svg">
<path d="M26.5 664L28.1839 669.182H33.6329L29.2245 672.385L30.9084 677.568L26.5 674.365L22.0916 677.568L23.7755 672.385L19.3671 669.182H24.8161L26.5 664Z" fill="#D9D9D9"/>
<path d="M111.895 666.289L109.435 671.151L113.298 674.993L107.914 674.155L105.454 679.017L104.586 673.638L99.2022 672.8L104.05 670.313L103.183 664.933L107.047 668.776L111.895 666.289Z" fill="#D9D9D9"/>
<path d="M54.5 723L56.1839 728.182H61.6329L57.2245 731.385L58.9084 736.568L54.5 733.365L50.0916 736.568L51.7755 731.385L47.3671 728.182H52.8161L54.5 723Z" fill="#D9D9D9"/>
<path d="M298.191 563.69L303.248 565.719L306.74 561.536L306.374 566.973L311.432 569.001L306.148 570.333L305.781 575.769L302.882 571.156L297.598 572.487L301.09 568.304L298.191 563.69Z" fill="#D9D9D9"/>
<path d="M354.673 499.601L356.828 504.606L362.254 504.102L358.161 507.699L360.316 512.704L355.631 509.922L351.537 513.518L352.735 508.203L348.049 505.421L353.475 504.917L354.673 499.601Z" fill="#D9D9D9"/>
<path d="M361.427 580.005L366.485 582.034L369.977 577.85L369.61 583.287L374.668 585.316L369.384 586.647L369.018 592.084L366.118 587.47L360.835 588.802L364.327 584.619L361.427 580.005Z" fill="#D9D9D9"/>
<path d="M81.9997 5.92752L81.3794 11.3412L86.3364 13.604L80.996 14.687L80.3756 20.1006L77.6954 15.3563L72.3551 16.4392L76.039 12.4241L73.3588 7.67974L78.3158 9.94262L81.9997 5.92752Z" fill="#D9D9D9"/>
<path d="M158.733 43.4724L154.476 46.8735L156.395 51.9734L151.844 48.9755L147.587 52.3766L149.032 47.1227L144.482 44.1247L149.925 43.8755L151.37 38.6216L153.289 43.7215L158.733 43.4724Z" fill="#D9D9D9"/>
<path d="M82.9697 71.2273L82.3493 76.6409L87.3063 78.9038L81.9659 79.9867L81.3456 85.4004L78.6654 80.656L73.325 81.7389L77.009 77.7238L74.3288 72.9795L79.2858 75.2424L82.9697 71.2273Z" fill="#D9D9D9"/>
<path d="M14.5 351L16.1839 356.182H21.6329L17.2245 359.385L18.9084 364.568L14.5 361.365L10.0916 364.568L11.7755 359.385L7.36708 356.182H12.8161L14.5 351Z" fill="#D9D9D9"/>
<path d="M99.8952 353.289L97.4348 358.151L101.298 361.993L95.9142 361.155L93.4537 366.017L92.5865 360.638L87.2022 359.8L92.0505 357.313L91.1833 351.933L95.0469 355.776L99.8952 353.289Z" fill="#D9D9D9"/>
<path d="M42.5 410L44.1839 415.182H49.6329L45.2245 418.385L46.9084 423.568L42.5 420.365L38.0916 423.568L39.7755 418.385L35.3671 415.182H40.8161L42.5 410Z" fill="#D9D9D9"/>
<path d="M184.169 549.542L182.117 554.59L186.283 558.101L180.848 557.71L178.796 562.758L177.489 557.468L172.054 557.076L176.682 554.198L175.375 548.908L179.541 552.42L184.169 549.542Z" fill="#D9D9D9"/>
<path d="M247.993 606.323L242.978 608.455L243.456 613.883L239.879 609.773L234.864 611.905L237.668 607.233L234.09 603.122L239.401 604.345L242.204 599.672L242.682 605.1L247.993 606.323Z" fill="#D9D9D9"/>
<path d="M167.558 612.701L165.506 617.749L169.673 621.261L164.238 620.869L162.186 625.917L160.879 620.627L155.444 620.235L160.071 617.357L158.764 612.067L162.931 615.579L167.558 612.701Z" fill="#D9D9D9"/>
<path d="M61.8952 489.289L59.4348 494.151L63.2985 497.993L57.9142 497.155L55.4537 502.017L54.5865 496.638L49.2022 495.8L54.0505 493.313L53.1833 487.933L57.0469 491.776L61.8952 489.289Z" fill="#D9D9D9"/>
<path d="M4.5 546L6.18386 551.182H11.6329L7.22453 554.385L8.90839 559.568L4.5 556.365L0.0916104 559.568L1.77547 554.385L-2.63292 551.182H2.81614L4.5 546Z" fill="#D9D9D9"/>
<path d="M391.5 97L393.184 102.182H398.633L394.225 105.385L395.908 110.568L391.5 107.365L387.092 110.568L388.775 105.385L384.367 102.182H389.816L391.5 97Z" fill="#D9D9D9"/>
<path d="M419.5 156L421.184 161.182H426.633L422.225 164.385L423.908 169.568L419.5 166.365L415.092 169.568L416.775 164.385L412.367 161.182H417.816L419.5 156Z" fill="#D9D9D9"/>
<path d="M211.5 15L213.184 20.1824H218.633L214.225 23.3853L215.908 28.5676L211.5 25.3647L207.092 28.5676L208.775 23.3853L204.367 20.1824H209.816L211.5 15Z" fill="#D9D9D9"/>
<path d="M296.895 17.2887L294.435 22.1506L298.298 25.9931L292.914 25.1555L290.454 30.0174L289.586 24.6378L284.202 23.8002L289.05 21.313L288.183 15.9334L292.047 19.7759L296.895 17.2887Z" fill="#D9D9D9"/>
<path d="M239.5 74L241.184 79.1824H246.633L242.225 82.3853L243.908 87.5676L239.5 84.3647L235.092 87.5676L236.775 82.3853L232.367 79.1824H237.816L239.5 74Z" fill="#D9D9D9"/>
<path d="M290.5 764L292.184 769.182H297.633L293.225 772.385L294.908 777.568L290.5 774.365L286.092 777.568L287.775 772.385L283.367 769.182H288.816L290.5 764Z" fill="#D9D9D9"/>
<path d="M375.895 766.289L373.435 771.151L377.298 774.993L371.914 774.155L369.454 779.017L368.586 773.638L363.202 772.8L368.05 770.313L367.183 764.933L371.047 768.776L375.895 766.289Z" fill="#D9D9D9"/>
<path d="M318.5 823L320.184 828.182H325.633L321.225 831.385L322.908 836.568L318.5 833.365L314.092 836.568L315.775 831.385L311.367 828.182H316.816L318.5 823Z" fill="#D9D9D9"/>
</svg>
