<svg width="248" height="229" viewBox="0 0 248 229" fill="none" xmlns="http://www.w3.org/2000/svg">
<path d="M247 1H7.5L2 52.5V119.5V157.5L24 165.5L2 177.5L7.5 227L53 220.5L66.5 227H247V1Z" fill="#EAB373" stroke="#400909" stroke-width="2"/>
<path d="M20 202.5C76 200.9 60.3333 210.5 45.5 215.5L20 202.5Z" stroke="black" stroke-width="2"/>
<path d="M51.5503 196.262C52.8207 194.991 54.0565 193.211 55.7793 192.637" stroke="black" stroke-width="3" stroke-linecap="round"/>
<path d="M60.0083 176.929V181.158" stroke="black" stroke-width="3" stroke-linecap="round"/>
<path d="M59.4042 164.846V161.826" stroke="black" stroke-width="3" stroke-linecap="round"/>
<path d="M63.0291 153.368C63.8156 152.361 64.5088 151.701 65.4456 150.951" stroke="black" stroke-width="3" stroke-linecap="round"/>
<path d="M70.2787 148.535C71.3118 147.752 72.3059 146.946 73.2994 146.118" stroke="black" stroke-width="3" stroke-linecap="round"/>
<path d="M79.9449 138.264L82.3615 136.452" stroke="black" stroke-width="3" stroke-linecap="round"/>
<path d="M88.403 129.202C88.9907 127.785 89.7374 126.407 90.2154 124.973" stroke="black" stroke-width="3" stroke-linecap="round"/>
<path d="M93.8402 111.078V115.911" stroke="black" stroke-width="3" stroke-linecap="round"/>
<path d="M97.4651 103.828C99.0237 102.695 100.72 101.86 102.298 100.807" stroke="black" stroke-width="3" stroke-linecap="round"/>
<path d="M109.548 91.7454C111.173 89.7638 112.569 87.5165 114.381 85.704" stroke="black" stroke-width="3" stroke-linecap="round"/>
<path d="M121.631 82.6832C124.389 80.5158 128.315 79.6237 130.693 77.246" stroke="black" stroke-width="3" stroke-linecap="round"/>
<path d="M140.359 73.6211C142.154 73.035 144.468 71.8087 146.401 71.8087" stroke="black" stroke-width="3" stroke-linecap="round"/>
<path d="M156.671 65.1631L159.088 62.7466" stroke="black" stroke-width="3" stroke-linecap="round"/>
<path d="M166.337 56.7051L169.358 56.101" stroke="black" stroke-width="3" stroke-linecap="round"/>
<path d="M175.399 53.0802C178.196 50.962 180.957 48.9724 183.857 47.0388" stroke="black" stroke-width="3" stroke-linecap="round"/>
<path d="M193.524 42.8099C194.69 41.8476 195.846 40.4406 197.148 39.7892" stroke="black" stroke-width="3" stroke-linecap="round"/>
<path d="M205.002 35.5602C206.68 35.2863 208.424 35.2926 209.835 34.3519" stroke="black" stroke-width="3" stroke-linecap="round"/>
<path d="M228.564 40.9974C227.804 36.1547 227.03 31.3375 224.335 27.1021C222.821 24.7234 220.718 22.2858 219.502 19.8524" stroke="#992626" stroke-width="3" stroke-linecap="round"/>
<path d="M216.481 39.7892C220.038 31.7389 229.842 28.2051 234.605 21.0608" stroke="#992626" stroke-width="3" stroke-linecap="round"/>
<path d="M225.661 188L222.606 197.818C226.204 193.633 228.63 196.075 229.394 197.818L225.661 188Z" stroke="#A81C1C" stroke-width="2"/>
<path d="M226.339 215L229.394 205.182C225.796 209.367 223.37 206.925 222.606 205.182L226.339 215Z" stroke="#A81C1C" stroke-width="2"/>
<path d="M212.117 202.144L221.989 205.182C217.782 201.604 220.236 199.191 221.989 198.432L212.117 202.144Z" stroke="#A81C1C" stroke-width="2"/>
<path d="M239.883 201.469L230.011 198.432C234.218 202.009 231.764 204.423 230.011 205.182L239.883 201.469Z" stroke="#A81C1C" stroke-width="2"/>
</svg>
